<?xml version="1.0" encoding="UTF-8" standalone="no"?>
<svg
	 xmlns:dc="http://purl.org/dc/elements/1.1/"
	 xmlns:cc="http://creativecommons.org/ns#"
	 xmlns:rdf="http://www.w3.org/1999/02/22-rdf-syntax-ns#"
	 xmlns:svg="http://www.w3.org/2000/svg"
	 xmlns="http://www.w3.org/2000/svg"
	 width="101"
	 height="77"
	 viewBox="0 0 610.16534 465.99734"
	 xml:space="preserve"
	 id="svg2"
	 version="1.1"><metadata
		 id="metadata8"><rdf:RDF><cc:Work
				 rdf:about=""><dc:format>image/svg+xml</dc:format><dc:type
					 rdf:resource="http://purl.org/dc/dcmitype/StillImage" /></cc:Work></rdf:RDF></metadata><defs
		 id="defs6"><clipPath
			 id="clipPath18"
			 clipPathUnits="userSpaceOnUse"><path
				 id="path16"
				 d="M 0,349.498 H 457.624 V 0 H 0 Z" /></clipPath></defs><g
		 transform="matrix(1.3333333,0,0,-1.3333333,0,465.99733)"
		 id="g10"><g
			 id="g12"><g
				 clip-path="url(#clipPath18)"
				 id="g14"><g
					 transform="translate(440.7061,267.0054)"
					 id="g24"><path
						 id="path26"
						 d="m 0,0 c 0,0 -4.186,31.857 -17.207,45.809 -16.51,18.37 -34.88,18.486 -43.367,19.532 -60.574,4.651 -151.378,4.651 -151.378,4.651 h -0.233 c 0,0 -90.803,0 -151.378,-4.651 C -372.05,64.295 -390.42,64.179 -406.93,45.809 -419.835,31.741 -424.137,0 -424.137,0 c 0,0 -4.069,-37.321 -4.069,-74.642 v -34.996 c 0,-37.321 4.302,-74.643 4.302,-74.643 0,0 4.185,-31.857 17.207,-45.808 16.509,-18.37 38.019,-17.789 47.669,-19.766 34.647,-3.487 147.076,-4.65 147.076,-4.65 0,0 90.92,0.116 151.494,4.766 8.487,1.047 26.857,1.163 43.367,19.533 12.905,13.952 17.207,45.809 17.207,45.809 0,0 4.302,37.321 4.302,74.643 v 34.996 C 4.302,-37.321 0,0 0,0 Z" fill="#63d1bb" stroke="#fff" stroke-width="25" /></g></g></g><g
			 transform="translate(174.6904,255.9604)"
			 id="g28"><path
				 id="path30"
				 d="m 0,0 v -162.307 l 135.217,81.153 z" fill="#fff" /></g></g></svg>
